<svg xmlns="http://www.w3.org/2000/svg" viewBox="0 0 64 64" width="64" height="64">
  <defs>
    <linearGradient id="g" x1="0" y1="0" x2="1" y2="1">
      <stop offset="0%" stop-color="#00d4ff"/>
      <stop offset="100%" stop-color="#0099cc"/>
    </linearGradient>
  </defs>
  <rect width="64" height="64" rx="14" fill="url(#g)"/>
  <circle cx="28" cy="28" r="10" fill="white" opacity="0.9"/>
  <line x1="28" y1="14" x2="28" y2="18" stroke="white" stroke-width="2" stroke-linecap="round" opacity="0.8"/>
  <line x1="28" y1="38" x2="28" y2="42" stroke="white" stroke-width="2" stroke-linecap="round" opacity="0.8"/>
  <line x1="14" y1="28" x2="18" y2="28" stroke="white" stroke-width="2" stroke-linecap="round" opacity="0.8"/>
  <line x1="38" y1="28" x2="42" y2="28" stroke="white" stroke-width="2" stroke-linecap="round" opacity="0.8"/>
  <path d="M34 34 Q38 30 42 34 Q46 30 50 34 Q50 38 46 38 L38 38 Q34 38 34 34Z" fill="white" opacity="0.9"/>
  <line x1="38" y1="38" x2="38" y2="48" stroke="white" stroke-width="2" stroke-linecap="round" opacity="0.6"/>
  <line x1="42" y1="38" x2="42" y2="46" stroke="white" stroke-width="2" stroke-linecap="round" opacity="0.6"/>
  <line x1="46" y1="38" x2="46" y2="48" stroke="white" stroke-width="2" stroke-linecap="round" opacity="0.6"/>
</svg>
